# xmcd
# Track frame offsets:
# 150
# 12898
# 29495
# 47540
# 63330
# 79278
# 97448
# 111980
# 132350
# 165133
# 186463
# 206440
# 223708
# 245238
# 262238
# 273993
# 298305
#
# Disc length: 4316 seconds
# Revision: 0
# Processed by: cddbd v1.4PL0 Copyright (c) Steve Scherf et al.
# Submitted via: VisiTrax 2.9.5.180 - For more info visit www.synapsa.com
#
DISCID=0f10da11
DTITLE=James Talley - Live
DYEAR=1900
DGENRE=
TTITLE0=Tryin' like the devil
TTITLE1=Woman trouble
TTITLE2=Whiskey on the side
TTITLE3=Dixie blues
TTITLE4=W. Lee O'Daniel and the light Crust Daughbos
TTITLE5=Not even when it's over
TTITLE6=Nothin' like love
TTITLE7=Find somebody and love them
TTITLE8=Survivors
TTITLE9=Bluesman
TTITLE10=I can't surrender
TTITLE11=We keep tryin'
TTITLE12=Are you gonna make us outlaws again
TTITLE13=Give my love to Marie
TTITLE14=Alabama summertime
TTITLE15=Take me to the country
TTITLE16=Take a whiff on me
EXTD=
EXTT0=
EXTT1=
EXTT2=
EXTT3=
EXTT4=
EXTT5=
EXTT6=
EXTT7=
EXTT8=
EXTT9=
EXTT10=
EXTT11=
EXTT12=
EXTT13=
EXTT14=
EXTT15=
EXTT16=
PLAYORDER=
